<svg width="68" height="26" viewBox="0 0 68 26" fill="none" xmlns="http://www.w3.org/2000/svg">
<path d="M0.941647 19.5C0.833311 19.3917 0.833313 19.3917 0.833313 19.2834C0.941648 19.2834 0.941647 19.3917 0.941647 19.5Z" fill="white"/>
<path d="M0.941645 19.5C0.833311 19.3917 0.833313 19.3917 0.833313 19.2833C0.941646 19.2833 0.941645 19.3917 0.941645 19.5ZM61.5 2.38335H60.0916V2.05835C60.0916 1.62501 59.7667 1.19168 59.225 1.19168C58.7916 1.19168 58.3583 1.51668 58.3583 2.05835V2.38335H50.3416V2.05835C50.3416 1.62501 50.0167 1.19168 49.475 1.19168C49.0416 1.19168 48.6083 1.51668 48.6083 2.05835V2.38335H47.2C45.6833 2.38335 44.4916 3.57501 44.4916 5.09168V19.2833C44.4916 20.8 45.6833 21.9917 47.2 21.9917H50.3416C50.775 21.9917 51.2083 21.6667 51.2083 21.125C51.2083 20.6917 50.8833 20.2583 50.3416 20.2583H47.2C46.55 20.2583 46.1166 19.7167 46.1166 19.175V8.55835C46.1166 8.23335 46.55 7.80001 47.2 7.80001H61.5C62.15 7.80001 62.5833 8.23335 62.5833 8.55835V10.5083C62.5833 10.9417 62.9083 11.375 63.45 11.375C63.8833 11.375 64.3166 11.05 64.3166 10.5083V5.09168C64.2083 3.57501 63.0166 2.38335 61.5 2.38335ZM62.5833 6.39168C62.2583 6.28335 61.825 6.17501 61.5 6.17501H47.2C46.7666 6.17501 46.4416 6.28335 46.1166 6.39168V5.09168C46.1166 4.44168 46.6583 4.00835 47.2 4.00835H48.6083V4.55001C48.6083 4.98335 48.9333 5.41668 49.475 5.41668C49.9083 5.41668 50.3416 5.09168 50.3416 4.55001V4.00835H58.4666V4.55001C58.4666 4.98335 58.7916 5.41668 59.3333 5.41668C59.7666 5.41668 60.2 5.09168 60.2 4.55001V4.00835H61.5C62.15 4.00835 62.5833 4.55001 62.5833 5.09168V6.39168Z" fill="white"/>
<path d="M58.7916 11.2667C55.1083 11.2667 52.075 14.3 52.075 17.9834C52.075 21.6667 55.1083 24.7 58.7916 24.7C62.4749 24.7 65.5083 21.6667 65.5083 17.9834C65.5083 14.3 62.4749 11.2667 58.7916 11.2667ZM58.7916 23.1834C55.9749 23.1834 53.7 20.9084 53.7 18.0917C53.7 15.275 55.9749 13 58.7916 13C61.6083 13 63.8833 15.275 63.8833 18.0917C63.8833 20.8 61.6083 23.1834 58.7916 23.1834Z" fill="white"/>
<path d="M62.475 20.2584C62.3667 20.475 62.0417 20.6917 61.825 20.6917C61.7167 20.6917 61.5 20.6917 61.3917 20.5834L58.0333 18.4167V15.1667C58.0333 14.7334 58.3583 14.3 58.9 14.3C59.3333 14.3 59.7667 14.625 59.7667 15.1667V17.55L62.3667 19.175C62.5833 19.3917 62.6917 19.825 62.475 20.2584Z" fill="white"/>
</svg>
