<svg width="26" height="26" viewBox="0 0 26 26" fill="none" xmlns="http://www.w3.org/2000/svg">
<path d="M21.9072 9.92335H20.462C20.4783 9.82585 20.4924 9.72618 20.4924 9.62327V7.11752C20.4924 6.05585 19.6289 5.19243 18.5662 5.19243H3.79169V3.63785C3.79169 3.18935 3.42769 2.82535 2.97919 2.82535C2.53069 2.82535 2.16669 3.18935 2.16669 3.63785V22.5658C2.16669 23.0154 2.53069 23.3783 2.97919 23.3783C3.42769 23.3783 3.79169 23.0154 3.79169 22.5658V21.0123H15.2274C16.289 21.0123 17.1535 20.1489 17.1535 19.0873V16.5815C17.1535 16.4786 17.1384 16.3789 17.1232 16.2803H21.9083C22.9699 16.2803 23.8344 15.4158 23.8344 14.3542V11.8517C23.8344 10.7868 22.971 9.92335 21.9083 9.92335H21.9072ZM18.5684 6.81743C18.733 6.81743 18.8684 6.95177 18.8684 7.11752V9.62002C18.8684 9.78685 18.733 9.92335 18.5673 9.92335H3.79169V6.81418H18.5684V6.81743ZM15.5274 16.5826V19.0873C15.5274 19.253 15.392 19.3873 15.2263 19.3873H3.79169V16.2803H15.2274C15.3931 16.2803 15.5274 16.4168 15.5274 16.5837V16.5826ZM22.2084 14.3542C22.2084 14.5199 22.0729 14.6543 21.9072 14.6543H3.79169V11.5483H21.9072C22.0729 11.5483 22.2084 11.6827 22.2084 11.8484V14.3542Z" fill="white"/>
</svg>
