<svg width="26" height="26" viewBox="0 0 26 26" fill="none" xmlns="http://www.w3.org/2000/svg">
<path d="M13 24.6458C6.57802 24.6458 1.35419 19.422 1.35419 13C1.35419 6.57799 6.57802 1.35416 13 1.35416C19.422 1.35416 24.6459 6.57799 24.6459 13C24.6459 19.422 19.422 24.6458 13 24.6458ZM13 2.97916C7.47502 2.97916 2.97919 7.47499 2.97919 13C2.97919 18.525 7.47502 23.0208 13 23.0208C18.525 23.0208 23.0209 18.525 23.0209 13C23.0209 7.47499 18.525 2.97916 13 2.97916Z" fill="white"/>
<path d="M13 18.5413C10.9504 18.5413 9.0643 17.5121 7.95605 15.7853C7.71338 15.4083 7.8228 14.9078 8.20088 14.664C8.57788 14.4192 9.08055 14.5297 9.32321 14.9088C10.1325 16.1677 11.5072 16.9184 13.0011 16.9184C14.495 16.9184 15.8698 16.1677 16.6801 14.9099C16.9228 14.5308 17.4255 14.4224 17.8025 14.6662C18.1816 14.9088 18.29 15.4115 18.0473 15.7885C16.9369 17.5153 15.0508 18.5456 13.0011 18.5456L13 18.5413Z" fill="white"/>
<path d="M15.9662 11.8473C16.8505 11.8473 17.5673 11.1305 17.5673 10.2462C17.5673 9.36186 16.8505 8.64499 15.9662 8.64499C15.0819 8.64499 14.365 9.36186 14.365 10.2462C14.365 11.1305 15.0819 11.8473 15.9662 11.8473Z" fill="white"/>
<path d="M10.0338 11.8473C10.9181 11.8473 11.635 11.1305 11.635 10.2462C11.635 9.36186 10.9181 8.64499 10.0338 8.64499C9.14955 8.64499 8.43268 9.36186 8.43268 10.2462C8.43268 11.1305 9.14955 11.8473 10.0338 11.8473Z" fill="white"/>
</svg>
