<svg width="26" height="26" viewBox="0 0 26 26" fill="none" xmlns="http://www.w3.org/2000/svg">
<path d="M22.3004 10.257C23.0154 10.257 23.6004 9.67416 23.6004 8.957C23.6004 8.23983 23.0154 7.657 22.3004 7.657H18.8121L19.1479 3.81441C19.1772 3.46991 19.0721 3.13191 18.8479 2.8665C18.6247 2.60108 18.3116 2.4375 17.9574 2.40608C17.2532 2.36816 16.6194 2.87408 16.5566 3.59016L16.2034 7.657H10.725L11.0587 3.81658C11.1237 3.10375 10.5929 2.47108 9.87028 2.40608C9.14986 2.35191 8.53236 2.87191 8.46953 3.58908L8.11745 7.65591H4.50995C3.7917 7.65591 3.20995 8.23875 3.20995 8.95591C3.20995 9.67308 3.79278 10.2559 4.50995 10.2559H7.89211L7.41545 15.7419H3.7007C2.98353 15.7419 2.4007 16.3269 2.4007 17.0419C2.4007 17.7569 2.98353 18.3441 3.7007 18.3441H7.18903L6.8532 22.1877C6.79145 22.8995 7.3212 23.5311 8.03403 23.5961L8.14886 23.6015C8.82703 23.6015 9.38386 23.0902 9.44345 22.412L9.79769 18.3462H15.275L14.9414 22.1856C14.8764 22.8984 15.4072 23.5311 16.1222 23.5961L16.237 23.6015C16.9054 23.6015 17.4742 23.0793 17.5316 22.412L17.8837 18.3462H21.4912C22.2062 18.3462 22.7912 17.7612 22.7912 17.0462C22.7912 16.3312 22.2062 15.7441 21.4912 15.7441H18.109L18.5857 10.2581H22.3015L22.3004 10.257ZM15.9759 10.257L15.4993 15.7419H10.0241L10.5008 10.2581H15.977L15.9759 10.257Z" fill="white"/>
</svg>
