<svg width="26" height="26" viewBox="0 0 26 26" fill="none" xmlns="http://www.w3.org/2000/svg">
<path d="M20.5834 11.375V9.53333H15.8167V16.4667H17.6583V14.3H19.825V12.4583H17.6583V11.375H20.5834ZM12.675 9.53333H14.5167V16.4667H12.675V9.53333ZM8.77502 11.2667C9.20835 11.2667 9.75002 11.4833 10.075 11.8083L11.375 10.725C10.725 9.96666 9.75002 9.53333 8.77502 9.53333C6.82502 9.53333 5.30835 11.05 5.30835 13C5.30835 14.95 6.82502 16.4667 8.77502 16.4667C9.85835 16.4667 10.725 16.0333 11.375 15.275V12.5667H8.34168V13.8667H9.64168V14.5167C9.42502 14.625 9.10002 14.7333 8.77502 14.7333C7.80002 14.7333 7.04168 13.975 7.04168 13C7.04168 12.1333 7.80002 11.2667 8.77502 11.2667Z" fill="white"/>
<path d="M22.2084 2.18832H3.79169C2.44835 2.18832 1.35419 3.27924 1.35419 4.62257V21.4218C1.35419 22.763 2.44835 23.855 3.79169 23.855H22.2084C23.5517 23.855 24.6459 22.763 24.6459 21.4218V4.62257C24.6459 3.27924 23.5517 2.18832 22.2084 2.18832ZM23.0209 21.4218C23.0209 21.866 22.6569 22.23 22.2084 22.23H3.79169C3.34319 22.23 2.97919 21.866 2.97919 21.4218V4.62257C2.97919 4.17624 3.34319 3.81332 3.79169 3.81332H22.2084C22.6569 3.81332 23.0209 4.17624 23.0209 4.62257V21.4218Z" fill="white"/>
</svg>
