<svg width="26" height="26" viewBox="0 0 26 26" fill="none" xmlns="http://www.w3.org/2000/svg">
<path d="M13 23.4412H12.9848C10.1866 23.3892 2.11249 16.094 2.11249 9.18449C2.11249 5.86516 4.8479 2.95099 7.96574 2.95099C10.4466 2.95099 12.1149 4.66266 12.9989 5.90849C13.8807 4.66482 15.5491 2.95099 18.031 2.95099C21.151 2.95099 23.8853 5.86516 23.8853 9.18557C23.8853 16.0929 15.8102 23.3881 13.0119 23.439H13V23.4412ZM7.96682 4.57707C5.71349 4.57707 3.73857 6.73074 3.73857 9.18666C3.73857 15.405 11.3587 21.749 13.0011 21.8162C14.6456 21.749 22.2636 15.4061 22.2636 9.18666C22.2636 6.73074 20.2887 4.57707 18.0353 4.57707C15.2967 4.57707 13.767 7.75774 13.754 7.78916C13.5048 8.39799 12.5017 8.39799 12.2514 7.78916C12.2362 7.75666 10.7077 4.57707 7.9679 4.57707H7.96682Z" fill="white"/>
</svg>
