<svg width="26" height="26" viewBox="0 0 26 26" fill="none" xmlns="http://www.w3.org/2000/svg">
<path d="M21.3959 2.16667H4.60419C3.2641 2.16667 2.16669 3.26409 2.16669 4.60417V21.3958C2.16669 22.7359 3.2641 23.8333 4.60419 23.8333H21.3959C22.7359 23.8333 23.8334 22.7359 23.8334 21.3958V4.60417C23.8334 3.26409 22.7359 2.16667 21.3959 2.16667ZM11.9167 18.1458H7.58335C7.13485 18.1458 6.77085 17.7818 6.77085 17.3333C6.77085 16.8848 7.13485 16.5208 7.58335 16.5208H11.9167C12.3652 16.5208 12.7292 16.8848 12.7292 17.3333C12.7292 17.7818 12.3652 18.1458 11.9167 18.1458ZM18.4167 13.8125H7.58335C7.13485 13.8125 6.77085 13.4485 6.77085 13C6.77085 12.5515 7.13485 12.1875 7.58335 12.1875H18.4167C18.8652 12.1875 19.2292 12.5515 19.2292 13C19.2292 13.4485 18.8652 13.8125 18.4167 13.8125ZM18.4167 9.47917H7.58335C7.13485 9.47917 6.77085 9.11517 6.77085 8.66667C6.77085 8.21817 7.13485 7.85417 7.58335 7.85417H18.4167C18.8652 7.85417 19.2292 8.21817 19.2292 8.66667C19.2292 9.11517 18.8652 9.47917 18.4167 9.47917Z" fill="white"/>
</svg>
