<svg width="26" height="26" viewBox="0 0 26 26" fill="none" xmlns="http://www.w3.org/2000/svg">
<path d="M21.3959 2.16666H4.60419C3.26085 2.16666 2.16669 3.26082 2.16669 4.60416V21.3958C2.16669 22.7392 3.26085 23.8333 4.60419 23.8333H21.3959C22.7392 23.8333 23.8334 22.7392 23.8334 21.3958V4.60416C23.8334 3.26082 22.7392 2.16666 21.3959 2.16666ZM4.60419 3.79166H21.3959C21.8433 3.79166 22.2084 4.15674 22.2084 4.60416V15.0865L18.0289 10.907C17.8772 10.7553 17.6714 10.6687 17.4547 10.6687H17.4514C17.2348 10.6687 17.0257 10.7553 16.8751 10.9113L12.1984 15.6607L10.2343 13.7042C10.0826 13.5525 9.87677 13.4658 9.6601 13.4658C9.45102 13.4333 9.23219 13.5525 9.08052 13.7117L3.79169 19.1122V4.60416C3.79169 4.15674 4.15677 3.79166 4.60419 3.79166ZM3.79819 21.4283L9.66769 15.4332L16.4732 22.2083H4.60419C4.16869 22.2083 3.8166 21.8595 3.79819 21.4283ZM21.3959 22.2083H18.7742L13.3499 16.8057L17.4579 12.6349L22.2084 17.3842V21.3958C22.2084 21.8432 21.8433 22.2083 21.3959 22.2083Z" fill="white"/>
<path d="M9.60702 10.6719C10.5296 10.6719 11.2775 9.92399 11.2775 9.0014C11.2775 8.07881 10.5296 7.3309 9.60702 7.3309C8.68443 7.3309 7.93652 8.07881 7.93652 9.0014C7.93652 9.92399 8.68443 10.6719 9.60702 10.6719Z" fill="white"/>
</svg>
