<svg width="26" height="26" viewBox="0 0 26 26" fill="none" xmlns="http://www.w3.org/2000/svg">
<path d="M12.5125 13.0888C12.8083 13.286 13.1918 13.286 13.4875 13.0888L23.8334 6.19233V5.95833C23.8334 4.615 22.7392 3.52083 21.3959 3.52083H4.60419C3.26085 3.52083 2.16669 4.615 2.16669 5.95833V6.17175L12.5125 13.0888Z" fill="white"/>
<path d="M14.365 14.4029C13.9501 14.6792 13.4767 14.8167 13 14.8167C12.5234 14.8167 12.0499 14.6792 11.635 14.4018L2.16669 8.073V20.7155C2.16669 22.0588 3.26085 23.153 4.60419 23.153H21.3959C22.7392 23.153 23.8334 22.0588 23.8334 20.7155V8.0925L14.365 14.4007V14.4029Z" fill="white"/>
</svg>
