<svg width="26" height="26" viewBox="0 0 26 26" fill="none" xmlns="http://www.w3.org/2000/svg">
<path d="M13.6156 4.00949L9.67765 4H9.67575C5.52322 4 2.27069 7.25348 2.27069 11.407C2.27069 15.2975 5.29537 18.2481 9.35772 18.4038V22.038C9.35772 22.1405 9.39949 22.3095 9.47164 22.4206C9.60645 22.6342 9.8362 22.75 10.0716 22.75C10.2027 22.75 10.3346 22.7139 10.4533 22.638C10.7039 22.4785 16.5985 18.7076 18.1318 17.4108C19.9375 15.8823 21.0178 13.6418 21.0207 11.4184V11.4022C21.015 7.25633 17.7644 4.00949 13.6156 4.00854V4.00949ZM17.2109 16.3247C16.1343 17.2361 12.5951 19.5573 10.7818 20.7326V17.707C10.7818 17.3139 10.4637 16.9949 10.0697 16.9949H9.69379C6.21911 16.9949 3.69569 14.6443 3.69569 11.407C3.69569 8.0519 6.32354 5.42405 9.6767 5.42405L13.6137 5.43354H13.6156C16.9688 5.43354 19.5966 8.05949 19.5985 11.4108C19.5957 13.2241 18.7042 15.0601 17.2118 16.3247H17.2109Z" fill="white"/>
</svg>
