<svg width="26" height="26" viewBox="0 0 26 26" fill="none" xmlns="http://www.w3.org/2000/svg">
<path d="M18.4167 14.625C19.3141 14.625 20.0417 13.8975 20.0417 13C20.0417 12.1025 19.3141 11.375 18.4167 11.375C17.5192 11.375 16.7917 12.1025 16.7917 13C16.7917 13.8975 17.5192 14.625 18.4167 14.625Z" fill="white"/>
<path d="M13 14.625C13.8975 14.625 14.625 13.8975 14.625 13C14.625 12.1025 13.8975 11.375 13 11.375C12.1025 11.375 11.375 12.1025 11.375 13C11.375 13.8975 12.1025 14.625 13 14.625Z" fill="white"/>
<path d="M7.58331 14.625C8.48078 14.625 9.20831 13.8975 9.20831 13C9.20831 12.1025 8.48078 11.375 7.58331 11.375C6.68585 11.375 5.95831 12.1025 5.95831 13C5.95831 13.8975 6.68585 14.625 7.58331 14.625Z" fill="white"/>
<path d="M13 24.6458C6.57799 24.6458 1.35416 19.422 1.35416 13C1.35416 6.57801 6.57799 1.35417 13 1.35417C19.422 1.35417 24.6458 6.57801 24.6458 13C24.6458 19.422 19.422 24.6458 13 24.6458ZM13 2.97917C7.47499 2.97917 2.97916 7.47501 2.97916 13C2.97916 18.525 7.47499 23.0208 13 23.0208C18.525 23.0208 23.0208 18.525 23.0208 13C23.0208 7.47501 18.525 2.97917 13 2.97917Z" fill="white"/>
</svg>
