<svg width="26" height="26" viewBox="0 0 26 26" fill="none" xmlns="http://www.w3.org/2000/svg">
<path d="M23.5051 17.8403C23.4834 17.823 21.1867 16.0637 21.2268 11.3078C21.2485 8.56375 20.3472 6.12734 18.6842 4.446C17.1947 2.93692 15.1775 2.10167 13.0054 2.093H12.9913C10.8203 2.10167 8.80316 2.938 7.3125 4.446C5.65066 6.12842 4.74825 8.56484 4.771 11.3068C4.81108 15.9998 2.58266 17.771 2.49383 17.8392C2.21216 18.0494 2.09733 18.4134 2.20675 18.7471C2.31616 19.0808 2.62925 19.305 2.97916 19.305H7.84766C7.956 22.061 10.218 24.2743 13 24.2743C15.782 24.2743 18.0429 22.061 18.1523 19.305H23.0208C23.3718 19.305 23.6817 19.0797 23.7922 18.7471C23.9027 18.4145 23.7867 18.0494 23.5051 17.8403ZM13 22.1087C11.4118 22.1087 10.1216 20.8661 10.0143 19.305H15.9857C15.8773 20.865 14.5882 22.1076 13 22.1076V22.1087Z" fill="white"/>
</svg>
