<svg width="26" height="26" viewBox="0 0 26 26" fill="none" xmlns="http://www.w3.org/2000/svg">
<path d="M23.5051 17.8403C23.4834 17.823 21.1867 16.0637 21.2268 11.3078C21.2485 8.56483 20.3472 6.12734 18.6842 4.44492C17.1947 2.93584 15.1775 2.10167 13.0054 2.09084H12.9913C10.8203 2.10167 8.80316 2.93584 7.3125 4.446C5.65066 6.12842 4.74716 8.56483 4.771 11.3078C4.81108 15.9987 2.58266 17.7721 2.49383 17.8403C2.21216 18.0494 2.09733 18.4145 2.20675 18.7482C2.31725 19.0818 2.62925 19.3061 2.97808 19.3061H8.30808C8.41858 21.8086 10.4715 23.8128 12.9989 23.8128C15.5263 23.8128 17.5771 21.8086 17.6865 19.3061H23.0187C23.3675 19.3061 23.6795 19.0829 23.7878 18.7493C23.8994 18.4167 23.7846 18.0505 23.5029 17.8414L23.5051 17.8403ZM13 22.1845C11.3696 22.1845 10.0425 20.9094 9.93633 19.305H16.0637C15.9553 20.9083 14.6304 22.1867 13 22.1867V22.1845ZM4.745 17.68C5.54666 16.4537 6.422 14.3997 6.396 11.2927C6.3765 8.95267 7.09366 6.97884 8.46841 5.58675C9.6525 4.3875 11.2634 3.72342 13 3.71584C14.7366 3.7245 16.3442 4.3875 17.5283 5.58784C18.9042 6.97992 19.6224 8.95267 19.6029 11.2938C19.5769 14.4008 20.4533 16.4558 21.255 17.6811H4.745V17.68Z" fill="white"/>
</svg>
