<svg width="26" height="26" viewBox="0 0 26 26" fill="none" xmlns="http://www.w3.org/2000/svg">
<path d="M5.41667 15.1667C6.61328 15.1667 7.58333 14.1966 7.58333 13C7.58333 11.8034 6.61328 10.8333 5.41667 10.8333C4.22005 10.8333 3.25 11.8034 3.25 13C3.25 14.1966 4.22005 15.1667 5.41667 15.1667Z" fill="white"/>
<path d="M13 15.1667C14.1966 15.1667 15.1666 14.1966 15.1666 13C15.1666 11.8034 14.1966 10.8333 13 10.8333C11.8034 10.8333 10.8333 11.8034 10.8333 13C10.8333 14.1966 11.8034 15.1667 13 15.1667Z" fill="white"/>
<path d="M20.5834 15.1667C21.78 15.1667 22.75 14.1966 22.75 13C22.75 11.8034 21.78 10.8333 20.5834 10.8333C19.3867 10.8333 18.4167 11.8034 18.4167 13C18.4167 14.1966 19.3867 15.1667 20.5834 15.1667Z" fill="white"/>
</svg>
