<svg width="26" height="26" viewBox="0 0 26 26" fill="none" xmlns="http://www.w3.org/2000/svg">
<path d="M13.2437 13.1788C11.7747 13.1788 10.1324 13.0163 9.08374 11.8181C8.20191 10.8106 7.91699 9.25276 8.21166 7.06009C8.62332 3.99859 10.504 2.17101 13.2448 2.17101C15.9857 2.17101 17.8674 3.99859 18.278 7.06009C18.5727 9.25276 18.2867 10.8084 17.4048 11.8181C16.354 13.0163 14.7127 13.1777 13.2448 13.1777L13.2437 13.1788ZM19.5802 23.8496H6.90732C6.18907 23.8496 5.55316 23.5463 5.11982 22.9981C4.66266 22.4196 4.49582 21.6223 4.67566 20.8661C5.57916 17.0419 9.10216 14.3693 13.2427 14.3693C17.3832 14.3693 20.9062 17.0408 21.8118 20.8661C21.9895 21.6223 21.8227 22.4196 21.3655 22.997C20.9322 23.5441 20.2984 23.8474 19.5802 23.8474V23.8496Z" fill="white"/>
</svg>
