<svg width="26" height="26" viewBox="0 0 26 26" fill="none" xmlns="http://www.w3.org/2000/svg">
<path d="M25.7498 16.9758C25.4335 16.6584 24.9189 16.6584 24.6015 16.9758L22.1965 19.3808V8.2875C22.1965 6.04717 20.3733 4.225 18.134 4.225H11.7965C11.348 4.225 10.984 4.589 10.984 5.0375C10.984 5.486 11.348 5.85 11.7965 5.85H18.134C19.4773 5.85 20.5715 6.94417 20.5715 8.2875V19.3808L18.1665 16.9758C17.8491 16.6584 17.3345 16.6584 17.0182 16.9758C16.7018 17.2932 16.6997 17.8078 17.0182 18.1242L20.8098 21.9158C20.9669 22.0751 21.1749 22.1542 21.384 22.1542C21.5931 22.1542 21.7989 22.0762 21.9582 21.9158L25.7498 18.1242C26.0683 17.8078 26.0683 17.2932 25.7498 16.9758ZM14.2015 20.5292H7.86402C6.52068 20.5292 5.42652 19.435 5.42652 18.0917V6.99833L7.83152 9.40333C7.99185 9.56258 8.19985 9.64166 8.40785 9.64166C8.61585 9.64166 8.82385 9.56258 8.98201 9.40333C9.29943 9.08592 9.29943 8.57133 8.98201 8.255L5.19035 4.46333C4.87293 4.14483 4.35835 4.14483 4.04202 4.46333L0.25035 8.255C-0.0681504 8.57133 -0.0681504 9.08592 0.25035 9.40333C0.56885 9.72075 1.08127 9.72075 1.39868 9.40333L3.80368 6.99833V18.0917C3.80368 20.332 5.62693 22.1542 7.86618 22.1542H14.2037C14.6522 22.1542 15.0162 21.7902 15.0162 21.3417C15.0162 20.8932 14.6511 20.5292 14.2037 20.5292H14.2015Z" fill="white"/>
</svg>
