<svg width="26" height="26" viewBox="0 0 26 26" fill="none" xmlns="http://www.w3.org/2000/svg">
<path d="M13 8.89417C10.7358 8.89417 8.89417 10.7358 8.89417 13C8.89417 15.2642 10.7358 17.1058 13 17.1058C15.2642 17.1058 17.1058 15.2642 17.1058 13C17.1058 10.7358 15.2642 8.89417 13 8.89417ZM13 15.4808C11.6328 15.4808 10.5192 14.3693 10.5192 13C10.5192 11.6307 11.635 10.5192 13 10.5192C14.365 10.5192 15.4808 11.6307 15.4808 13C15.4808 14.3693 14.3672 15.4808 13 15.4808Z" fill="white"/>
<path d="M13.39 24.2396H12.6078C11.3262 24.2396 10.2743 23.2776 10.1573 22.0036L10.1422 21.8443C10.1151 21.5334 9.91791 21.2669 9.63082 21.1467C9.32099 21.0167 9.00032 21.0762 8.76632 21.2712L8.64066 21.3763C7.70032 22.1617 6.19991 22.0946 5.32566 21.2247L4.77316 20.6722C3.86749 19.7622 3.80249 18.3387 4.62149 17.3572L4.72766 17.2293C4.92916 16.9888 4.97682 16.6627 4.85982 16.3767C4.74066 16.0821 4.47199 15.8849 4.15999 15.8567L3.99749 15.8416C2.71916 15.7257 1.75824 14.6716 1.75824 13.3911V12.6089C1.75824 11.3273 2.72024 10.2754 3.99424 10.1584L4.16324 10.1432C4.47199 10.1162 4.73741 9.91899 4.85874 9.63082C4.97791 9.33832 4.92916 9.01007 4.72874 8.76957L4.62691 8.64391C3.80682 7.66024 3.87074 6.23566 4.77532 5.32891L5.32999 4.77424C6.20099 3.90324 7.70032 3.83716 8.64499 4.62257L8.77066 4.72874C9.00682 4.92807 9.34266 4.97791 9.62649 4.86091C9.91899 4.73957 10.1162 4.47307 10.1432 4.16432L10.1584 3.99857C10.2743 2.72024 11.3284 1.76041 12.6089 1.76041H13.3911C14.6727 1.76041 15.7246 2.72241 15.8416 3.99641L15.8567 4.16541C15.8838 4.47416 16.0799 4.73957 16.3681 4.85874C16.6682 4.98549 16.9964 4.92591 17.2282 4.73199L17.3582 4.62149C18.2975 3.83824 19.8001 3.90432 20.6732 4.77316L21.2257 5.32782C22.1314 6.23566 22.1964 7.66024 21.3774 8.64282L21.2691 8.77066C21.0654 9.00899 21.0156 9.33616 21.1358 9.62432C21.2572 9.91682 21.5258 10.1118 21.8357 10.1422L22.0003 10.1573C23.2787 10.2732 24.2396 11.3273 24.2396 12.6078V13.3911C24.2396 14.6727 23.2776 15.7246 22.0036 15.8416L21.8357 15.8567C21.528 15.8827 21.2615 16.0788 21.1423 16.3659C21.0199 16.6606 21.0697 16.9877 21.2691 17.2272L21.3774 17.3572C22.1964 18.3376 22.1314 19.7622 21.2257 20.6722L20.6732 21.2247C19.799 22.0957 18.3007 22.1607 17.3582 21.3763L17.2337 21.2723C16.9986 21.0741 16.6595 21.0232 16.3778 21.1402C16.0821 21.2637 15.8849 21.5302 15.8578 21.84L15.8427 22.0025C15.7267 23.2732 14.6727 24.2342 13.3922 24.2342L13.39 24.2396ZM9.30257 19.4512C9.62757 19.4512 9.94499 19.5162 10.2451 19.6408C11.1009 19.9962 11.6794 20.7827 11.7617 21.6948L11.7769 21.8541C11.817 22.2874 12.1745 22.6124 12.6111 22.6124H13.3932C13.8266 22.6124 14.1841 22.2874 14.2252 21.8541L14.2404 21.6937C14.3227 20.7816 14.9012 19.9962 15.7484 19.6441C16.6075 19.2866 17.5857 19.4469 18.2758 20.0232L18.3982 20.1251C18.5911 20.2854 18.7947 20.3201 18.9323 20.3201C19.1555 20.3201 19.3657 20.2334 19.5238 20.0742L20.0763 19.5217C20.384 19.214 20.4067 18.7308 20.1283 18.3972L20.02 18.2672C19.4328 17.563 19.2866 16.5988 19.6387 15.7506C19.9918 14.8947 20.7783 14.3206 21.6905 14.2372L21.8584 14.222C22.2885 14.1819 22.6167 13.8244 22.6167 13.3878V12.6057C22.6167 12.1723 22.2885 11.8148 21.8562 11.7737L21.6916 11.7585C20.7751 11.674 19.9907 11.0977 19.6387 10.2494C19.2855 9.39574 19.4328 8.43157 20.0211 7.72849L20.1294 7.60066C20.4078 7.26482 20.3851 6.78166 20.0774 6.47399L19.5249 5.92149C19.3667 5.76224 19.1566 5.67557 18.9334 5.67557C18.7958 5.67557 18.5922 5.71024 18.4004 5.87057L18.2704 5.97891C17.5836 6.55091 16.5912 6.70474 15.7549 6.36241C14.9012 6.00816 14.3249 5.22274 14.2415 4.30841L14.2263 4.14049C14.1884 3.71041 13.8309 3.38216 13.3954 3.38216H12.6122C12.1788 3.38216 11.8213 3.71041 11.7802 4.14266L11.765 4.30732C11.6827 5.22057 11.1063 6.00599 10.2592 6.35807C9.40657 6.71124 8.42507 6.55632 7.73499 5.97891L7.60716 5.87491C7.41216 5.71241 7.20849 5.67991 7.07091 5.67991C6.84774 5.67991 6.63757 5.76657 6.47941 5.92474L5.92474 6.47724C5.61924 6.78491 5.59649 7.26807 5.87491 7.60174L5.98324 7.72957C6.56824 8.43699 6.71666 9.40224 6.36457 10.2483C6.01032 11.102 5.22491 11.6783 4.31166 11.7617L4.14266 11.7769C3.71257 11.817 3.38432 12.1745 3.38432 12.6111V13.3932C3.38432 13.8266 3.71257 14.1841 4.14482 14.2252L4.30732 14.2404C5.22599 14.3249 6.01141 14.9034 6.36241 15.7527C6.71449 16.6042 6.56824 17.5673 5.97999 18.2715L5.87599 18.3961C5.59432 18.7319 5.61816 19.2151 5.92582 19.5227L6.47832 20.0752C6.63649 20.2345 6.84666 20.3212 7.06982 20.3212C7.20741 20.3212 7.41107 20.2887 7.60282 20.1262L7.72849 20.0222C8.16832 19.6582 8.72841 19.4545 9.30257 19.4545V19.4512Z" fill="white"/>
</svg>
