<svg width="26" height="26" viewBox="0 0 26 26" fill="none" xmlns="http://www.w3.org/2000/svg">
<path d="M20.189 6.8912L13.689 0.290117C13.3081 -0.0967058 12.6906 -0.0967058 12.311 0.290117L5.811 6.8912C5.4288 7.27802 5.4288 7.90512 5.811 8.29062C6.1932 8.67613 6.8081 8.67877 7.189 8.29062L12.025 3.37942V16.8324C12.025 17.379 12.4618 17.8226 13 17.8226C13.5382 17.8226 13.975 17.379 13.975 16.8324V3.37942L18.811 8.29062C19.0008 8.4847 19.2504 8.58107 19.5 8.58107C19.7496 8.58107 19.9992 8.48602 20.189 8.29062C20.5699 7.9038 20.5699 7.27802 20.189 6.8912Z" fill="white"/>
<path d="M23.0204 26H2.9796C1.3364 26 0 24.6428 0 22.9741V15.5122C0 14.9656 0.4368 14.522 0.975 14.522C1.5132 14.522 1.95 14.9656 1.95 15.5122V22.9741C1.95 23.551 2.4115 24.0197 2.9796 24.0197H23.0204C23.5885 24.0197 24.05 23.551 24.05 22.9741V15.5122C24.05 14.9656 24.4868 14.522 25.025 14.522C25.5632 14.522 26 14.9656 26 15.5122V22.9741C26 24.6428 24.6636 26 23.0204 26Z" fill="white"/>
</svg>
