<svg width="26" height="26" viewBox="0 0 26 26" fill="none" xmlns="http://www.w3.org/2000/svg">
<path d="M24.6697 11.2344L18.5835 8.64383L16.2435 0.962008C16.133 0.59919 15.821 0.354553 15.4722 0.354553C15.1233 0.354553 14.8113 0.59919 14.7008 0.960826L12.3608 8.64264L6.2725 11.2332C5.96158 11.3656 5.75575 11.6941 5.75575 12.0605C5.75575 12.4268 5.96158 12.7518 6.27358 12.8854L12.3619 15.4759L14.7019 23.1577C14.8124 23.5194 15.1244 23.764 15.4733 23.764C15.8221 23.764 16.1341 23.5194 16.2446 23.1577L18.5846 15.4759L24.6729 12.8854C24.9838 12.753 25.1897 12.4245 25.1897 12.0581C25.1897 11.6917 24.9838 11.3667 24.6718 11.2344H24.6697ZM17.6388 13.9762C17.4135 14.0707 17.238 14.2716 17.1622 14.5198L15.4722 20.0685L13.7822 14.5222C13.7063 14.274 13.533 14.0731 13.3077 13.9762L8.80642 12.0616L13.3066 10.1447C13.5319 10.0502 13.7074 9.84928 13.7832 9.59873L15.4733 4.05246L17.1633 9.59992C17.2391 9.85046 17.4124 10.0514 17.6378 10.1471L22.139 12.0616L17.6378 13.9786L17.6388 13.9762ZM7.21825 3.32328H5.18158V1.24092C5.18158 0.751644 4.8165 0.354553 4.36908 0.354553C3.92167 0.354553 3.55658 0.751644 3.55658 1.24092V3.32328H1.625C1.1765 3.32328 0.8125 3.72037 0.8125 4.20964C0.8125 4.69892 1.1765 5.09601 1.625 5.09601H3.5555V7.17837C3.5555 7.66764 3.9195 8.06473 4.368 8.06473C4.8165 8.06473 5.1805 7.66764 5.1805 7.17837V5.09601H7.21717C7.66675 5.09601 8.02967 4.69892 8.02967 4.20964C8.02967 3.72037 7.66675 3.32328 7.21717 3.32328H7.21825ZM9.9645 21.7856H8.77283V20.5849C8.77283 20.0956 8.40992 19.6986 7.96033 19.6986C7.51075 19.6986 7.14783 20.0956 7.14783 20.5849V21.7856H6.03417C5.58567 21.7856 5.22167 22.1827 5.22167 22.672C5.22167 23.1613 5.58567 23.5584 6.03417 23.5584H7.15V24.7591C7.15 25.2484 7.51292 25.6455 7.9625 25.6455C8.41208 25.6455 8.775 25.2484 8.775 24.7591V23.5584H9.9645C10.413 23.5584 10.777 23.1613 10.777 22.672C10.777 22.1827 10.413 21.7856 9.9645 21.7856Z" fill="white"/>
</svg>
