<svg width="26" height="26" viewBox="0 0 26 26" fill="none" xmlns="http://www.w3.org/2000/svg">
<path d="M25.6132 5.34842C24.7087 5.74925 23.7369 6.02009 22.7153 6.14251C23.7575 5.51851 24.557 4.52834 24.934 3.34967C23.959 3.92817 22.8789 4.34851 21.7295 4.57384C20.8087 3.59451 19.4978 2.98134 18.0462 2.98134C15.2598 2.98134 13 5.24117 13 8.02967C13 8.42401 13.0455 8.80751 13.13 9.17801C8.93424 8.96676 5.21733 6.95717 2.72783 3.90434C2.29449 4.65184 2.04533 5.51851 2.04533 6.44151C2.04533 8.19217 2.93691 9.73809 4.28999 10.6427C3.46233 10.6156 2.68449 10.3892 2.00416 10.0111V10.0761C2.00416 12.5212 3.74291 14.5611 6.05258 15.0248C5.62791 15.1396 5.18266 15.2003 4.72333 15.2003C4.39833 15.2003 4.08091 15.1699 3.77324 15.1114C4.41566 17.1156 6.27899 18.5759 8.48791 18.6149C6.75999 19.9691 4.58358 20.7762 2.21974 20.7762C1.81241 20.7762 1.41049 20.7523 1.01508 20.7058C3.24891 22.139 5.90091 22.9732 8.75008 22.9732C18.0342 22.9732 23.1097 15.2837 23.1097 8.61467C23.1097 8.39801 23.1042 8.17917 23.0945 7.9625C24.0803 7.24967 24.9362 6.36242 25.6111 5.35167L25.6132 5.34842Z" fill="white"/>
</svg>
