<svg width="26" height="26" viewBox="0 0 26 26" fill="none" xmlns="http://www.w3.org/2000/svg">
<path d="M13 1.625C6.71667 1.625 1.625 6.71667 1.625 13C1.625 19.2833 6.71667 24.375 13 24.375C19.2833 24.375 24.375 19.2833 24.375 13C24.375 6.71667 19.2833 1.625 13 1.625ZM9.80092 6.39167C8.84975 6.916 8.47925 7.0135 8.19108 7.32117C7.90617 7.62883 7.47283 9.05125 7.28108 9.17583C7.08933 9.30042 5.69725 9.34267 5.69725 9.34267C5.69725 9.34267 8.02425 11.1562 8.788 11.3273C9.55283 11.4985 11.4205 11.0998 11.7888 11.1735C12.1593 11.2493 14.0812 12.9827 14.3065 13.4203C14.5318 13.858 14.4863 15.314 14.2653 15.5263C14.0443 15.7387 12.9838 16.7072 12.7563 17.0322C12.5288 17.3572 10.7044 21.45 10.4878 21.4522C10.2711 21.4522 9.81608 20.8412 9.69692 20.5335C9.57775 20.2258 9.23433 16.1872 9.05775 15.9153C8.88117 15.6444 7.83792 15.0269 7.67542 14.8038C7.51292 14.5795 7.07742 13.3012 7.1045 13.052C7.1305 12.8028 7.6375 11.9611 7.50967 11.7368C7.38292 11.5126 5.11875 10.6178 4.68217 10.4585C4.24558 10.3014 3.61725 10.0988 3.61725 10.0988C4.84142 6.1425 8.5085 3.25433 12.8473 3.18717C12.8473 3.18717 12.9827 3.16767 13.0488 3.33883C13.1679 3.64867 13.3261 4.50667 13.1484 4.79592C12.9935 5.04508 10.7543 5.86842 9.80308 6.39275L9.80092 6.39167ZM21.8736 15.3183C21.6461 14.9034 20.5497 12.7725 20.1478 12.4107C19.8987 12.1853 17.7645 11.4227 17.3853 11.2298C17.004 11.0381 16.0225 10.1497 16.0128 9.91575C16.0019 9.68175 17.2207 8.61142 17.2586 8.26475C17.3193 7.73392 15.2198 6.27683 15.2035 6.03958C15.1873 5.80125 15.3628 5.32458 15.5393 5.16208C15.9759 4.77208 18.9952 5.20542 19.3917 5.55208C21.5583 7.4555 22.8237 10.0219 22.8237 12.9978C22.8237 13.8385 22.6287 15.0692 22.5182 15.3595C22.4315 15.587 22.0382 15.6108 21.8736 15.3162V15.3183Z" fill="white"/>
</svg>
